<?xml version="1.0" encoding="UTF-8"?><svg xmlns="http://www.w3.org/2000/svg" xmlns:xlink="http://www.w3.org/1999/xlink" contentScriptType="text/ecmascript" width="375pt" zoomAndPan="magnify" contentStyleType="text/css" viewBox="0 0 375 374.999991" height="374.999991pt" preserveAspectRatio="xMidYMid meet" version="1.2"><defs><g/><filter x="0%" y="0%" width="100%" xmlns:xlink="http://www.w3.org/1999/xlink" xlink:type="simple" filterUnits="objectBoundingBox" xlink:actuate="onLoad" id="alpha" height="100%" xlink:show="other" xml:id="alpha"><feColorMatrix values="0 0 0 0 1 0 0 0 0 1 0 0 0 0 1 0 0 0 1 0" type="matrix" in="SourceGraphic"/></filter><clipPath xml:id="clip2" id="clip2"><path d="M 0.617188 1.5 L 162.617188 1.5 L 162.617188 163.5 L 0.617188 163.5 Z M 0.617188 1.5 "/></clipPath><clipPath xml:id="clip1" id="clip1"><rect x="0" width="164" y="0" height="164"/></clipPath></defs><g xml:id="surface1" id="surface1"><g mask="url(#mask0)" transform="matrix(1,0,0,1,106,111)"><g xml:id="surface5" id="surface5" clip-path="url(#clip1)"><path style=" stroke:none;fill-rule:nonzero;fill:rgb(21.958923%,71.369934%,100%);fill-opacity:1;" d="M 81.617188 161.660156 C 37.964844 161.660156 2.457031 126.152344 2.457031 82.5 C 2.457031 38.847656 37.964844 3.339844 81.617188 3.339844 C 125.269531 3.339844 160.777344 38.847656 160.777344 82.5 C 160.777344 126.152344 125.269531 161.660156 81.617188 161.660156 "/><g clip-rule="nonzero" clip-path="url(#clip2)"><path style=" stroke:none;fill-rule:nonzero;fill:rgb(100%,100%,100%);fill-opacity:1;" d="M 81.617188 1.5 C 59.984375 1.5 39.636719 9.925781 24.34375 25.226562 C 9.042969 40.519531 0.617188 60.867188 0.617188 82.5 C 0.617188 104.132812 9.042969 124.480469 24.34375 139.773438 C 39.636719 155.074219 59.984375 163.5 81.617188 163.5 C 103.25 163.5 123.597656 155.074219 138.890625 139.773438 C 154.191406 124.480469 162.617188 104.132812 162.617188 82.5 C 162.617188 60.867188 154.191406 40.519531 138.890625 25.226562 C 123.597656 9.925781 103.25 1.5 81.617188 1.5 M 81.617188 5.183594 C 124.320312 5.183594 158.933594 39.796875 158.933594 82.5 C 158.933594 125.203125 124.320312 159.816406 81.617188 159.816406 C 38.914062 159.816406 4.300781 125.203125 4.300781 82.5 C 4.300781 39.796875 38.914062 5.183594 81.617188 5.183594 "/></g><path style=" stroke:none;fill-rule:nonzero;fill:rgb(0%,29.019165%,67.83905%);fill-opacity:1;" d="M 81.617188 159.816406 C 38.914062 159.816406 4.300781 125.203125 4.300781 82.5 L 4.300781 82.410156 C 4.300781 80.746094 4.359375 79.082031 4.46875 77.441406 C 18.253906 98.65625 42.164062 112.691406 69.34375 112.691406 C 110.351562 112.691406 143.890625 80.777344 146.492188 40.429688 C 154.179688 52.25 158.722656 66.308594 158.929688 81.410156 L 158.929688 81.636719 C 158.929688 81.660156 158.929688 81.691406 158.933594 81.710938 L 158.933594 82.5 C 158.933594 125.203125 124.320312 159.816406 81.617188 159.816406 "/><path style=" stroke:none;fill-rule:nonzero;fill:rgb(0%,0%,0%);fill-opacity:1;" d="M 81.617188 159.816406 C 38.914062 159.816406 4.300781 125.203125 4.300781 82.5 C 4.300781 125.203125 38.914062 159.816406 81.617188 159.816406 C 124.320312 159.816406 158.933594 125.203125 158.933594 82.5 C 158.933594 125.203125 124.320312 159.816406 81.617188 159.816406 M 158.933594 82.5 L 158.933594 82.441406 L 158.933594 82.5 M 4.300781 82.5 L 4.300781 82.449219 L 4.300781 82.5 M 158.933594 82.425781 L 158.933594 82.390625 L 158.933594 82.425781 M 4.300781 82.417969 L 4.300781 82.410156 L 4.300781 82.417969 M 158.933594 82.367188 L 158.933594 82.316406 L 158.933594 82.367188 M 158.933594 82.300781 L 158.933594 82.257812 L 158.933594 82.300781 M 158.933594 82.242188 L 158.933594 82.199219 L 158.933594 82.242188 M 158.933594 82.183594 L 158.933594 82.132812 L 158.933594 82.183594 M 158.933594 82.109375 L 158.933594 82.074219 L 158.933594 82.109375 M 158.933594 82.050781 L 158.933594 82.015625 L 158.933594 82.050781 M 158.933594 81.984375 L 158.933594 81.949219 L 158.933594 81.984375 M 158.933594 81.925781 L 158.933594 81.890625 L 158.933594 81.925781 M 158.933594 81.867188 L 158.933594 81.824219 L 158.933594 81.867188 M 158.933594 81.792969 L 158.933594 81.761719 L 158.933594 81.792969 M 158.933594 81.734375 L 158.933594 81.710938 L 158.933594 81.734375 M 158.929688 81.601562 L 158.929688 81.585938 L 158.929688 81.601562 "/><path style=" stroke:none;fill-rule:nonzero;fill:rgb(100%,100%,100%);fill-opacity:1;" d="M 120.859375 82.5 L 119.015625 82.5 C 119.023438 103.597656 114.664062 122.683594 107.722656 136.335938 C 104.261719 143.167969 100.160156 148.632812 95.710938 152.328125 C 93.496094 154.175781 91.191406 155.589844 88.839844 156.542969 C 86.484375 157.492188 84.085938 157.976562 81.617188 157.976562 C 79.152344 157.976562 76.75 157.492188 74.402344 156.542969 C 70.285156 154.882812 66.316406 151.792969 62.683594 147.449219 C 57.234375 140.929688 52.589844 131.617188 49.34375 120.46875 C 46.085938 109.324219 44.21875 96.34375 44.21875 82.5 C 44.210938 61.402344 48.578125 42.316406 55.511719 28.65625 C 58.972656 21.832031 63.082031 16.367188 67.523438 12.671875 C 71.972656 8.964844 76.707031 7.023438 81.617188 7.023438 C 86.535156 7.023438 91.261719 8.964844 95.710938 12.671875 C 99.046875 15.445312 102.191406 19.210938 105.011719 23.804688 C 109.246094 30.691406 112.757812 39.429688 115.203125 49.414062 C 117.648438 59.398438 119.015625 70.628906 119.015625 82.5 L 122.699219 82.5 C 122.699219 60.894531 118.273438 41.324219 111.003906 26.992188 C 107.367188 19.828125 103.015625 13.964844 98.074219 9.84375 C 93.132812 5.71875 87.539062 3.332031 81.617188 3.339844 C 75.695312 3.332031 70.101562 5.71875 65.167969 9.84375 C 61.457031 12.9375 58.082031 17.007812 55.085938 21.875 C 50.601562 29.164062 46.972656 38.246094 44.460938 48.539062 C 41.941406 58.832031 40.535156 70.351562 40.535156 82.5 C 40.542969 104.105469 44.960938 123.675781 52.230469 138.007812 C 55.867188 145.171875 60.21875 151.035156 65.167969 155.15625 C 70.101562 159.28125 75.695312 161.667969 81.617188 161.660156 C 87.539062 161.667969 93.132812 159.28125 98.074219 155.15625 C 101.777344 152.0625 105.160156 147.992188 108.148438 143.125 C 112.632812 135.835938 116.253906 126.753906 118.78125 116.453125 C 121.292969 106.160156 122.699219 94.648438 122.699219 82.5 L 120.859375 82.5 "/><path style=" stroke:none;fill-rule:nonzero;fill:rgb(100%,100%,100%);fill-opacity:1;" d="M 81.617188 121.742188 L 81.617188 119.898438 C 60.519531 119.90625 41.433594 115.546875 27.773438 108.605469 C 20.949219 105.144531 15.484375 101.042969 11.789062 96.59375 C 9.941406 94.378906 8.527344 92.074219 7.574219 89.722656 C 6.625 87.367188 6.140625 84.96875 6.140625 82.5 C 6.140625 77.589844 8.082031 72.855469 11.789062 68.40625 C 14.5625 65.070312 18.328125 61.925781 22.921875 59.105469 C 29.808594 54.871094 38.546875 51.359375 48.53125 48.914062 C 58.515625 46.476562 69.746094 45.101562 81.617188 45.101562 C 102.714844 45.09375 121.800781 49.460938 135.453125 56.386719 C 142.285156 59.855469 147.75 63.957031 151.445312 68.40625 C 153.292969 70.621094 154.707031 72.925781 155.660156 75.277344 C 156.609375 77.632812 157.09375 80.035156 157.09375 82.5 C 157.09375 84.96875 156.609375 87.367188 155.660156 89.722656 C 154 93.832031 150.910156 97.808594 146.566406 101.4375 C 140.046875 106.882812 130.734375 111.527344 119.585938 114.773438 C 108.441406 118.03125 95.460938 119.898438 81.617188 119.898438 L 81.617188 123.582031 C 103.222656 123.582031 122.792969 119.15625 137.125 111.886719 C 144.289062 108.25 150.144531 103.898438 154.273438 98.957031 C 158.398438 94.015625 160.785156 88.421875 160.777344 82.5 C 160.785156 76.578125 158.398438 70.984375 154.273438 66.042969 C 151.179688 62.332031 147.109375 58.957031 142.242188 55.96875 C 134.953125 51.484375 125.871094 47.855469 115.578125 45.34375 C 105.277344 42.824219 93.765625 41.417969 81.617188 41.417969 C 60.011719 41.425781 40.441406 45.84375 26.109375 53.113281 C 18.953125 56.75 13.089844 61.101562 8.960938 66.042969 C 4.835938 70.984375 2.449219 76.578125 2.457031 82.5 C 2.449219 88.421875 4.835938 94.015625 8.960938 98.957031 C 12.054688 102.660156 16.125 106.042969 20.992188 109.03125 C 28.289062 113.515625 37.363281 117.136719 47.65625 119.664062 C 57.949219 122.175781 69.46875 123.582031 81.617188 123.582031 L 81.617188 121.742188 "/><path style=" stroke:none;fill-rule:nonzero;fill:rgb(100%,100%,100%);fill-opacity:1;" d="M 79.777344 159.816406 L 83.457031 159.816406 L 83.457031 5.183594 L 79.777344 5.183594 Z M 79.777344 159.816406 "/><path style=" stroke:none;fill-rule:nonzero;fill:rgb(100%,100%,100%);fill-opacity:1;" d="M 4.300781 84.339844 L 158.933594 84.339844 L 158.933594 80.660156 L 4.300781 80.660156 Z M 4.300781 84.339844 "/></g><mask xml:id="mask0" id="mask0"><g filter="url(#alpha)"><rect x="0" width="375" y="0" height="374.999991" style="fill:rgb(0%,0%,0%);fill-opacity:0.498;stroke:none;"/></g></mask></g><g style="fill:rgb(0%,0%,0%);fill-opacity:1;"><g transform="translate(87.224508, 214.12476)"><path style="stroke:none;" d="M 34.320312 0.703125 C 51.339844 0.703125 65.125 -13.433594 65.125 -30.453125 C 65.125 -47.753906 51.269531 -61.609375 34.320312 -61.609375 C 17.371094 -61.609375 3.515625 -47.753906 3.515625 -30.453125 C 3.515625 -13.714844 17.160156 0.703125 34.320312 0.703125 Z M 34.320312 -0.140625 C 29.960938 -0.140625 17.863281 -2.742188 17.863281 -30.453125 C 17.863281 -57.878906 29.960938 -60.765625 34.320312 -60.765625 C 38.75 -60.765625 50.777344 -57.878906 50.777344 -30.453125 C 50.777344 -2.742188 38.75 -0.140625 34.320312 -0.140625 Z M 34.320312 -0.140625 "/></g></g><g style="fill:rgb(0%,0%,0%);fill-opacity:1;"><g transform="translate(141.7916, 214.12476)"><path style="stroke:none;" d="M 3.515625 -0.632812 L 3.515625 0 L 33.898438 0 L 33.898438 -0.632812 C 28.625 -0.632812 26.375 -2.953125 26.375 -7.945312 L 26.375 -28.976562 L 34.390625 -28.976562 C 39.453125 -28.976562 37.976562 -25.808594 42.195312 -14.980469 C 46.558594 -3.796875 51.550781 0 56.824219 0 L 69.484375 0 L 69.484375 -0.632812 C 63.15625 -0.632812 60.128906 -3.65625 56.542969 -14.980469 C 53.097656 -25.808594 49.792969 -28.976562 39.875 -29.539062 C 48.386719 -30.945312 56.050781 -35.65625 56.050781 -45.011719 C 56.050781 -56.332031 45.363281 -60.625 33.96875 -60.625 L 3.515625 -60.625 L 3.515625 -59.988281 L 4.359375 -59.988281 C 6.46875 -59.917969 11.816406 -59.003906 11.816406 -52.535156 L 11.816406 -8.085938 C 11.816406 -2.953125 8.792969 -0.632812 3.515625 -0.632812 Z M 33.96875 -29.679688 L 26.375 -29.679688 L 26.375 -59.988281 L 33.96875 -59.988281 C 39.03125 -59.988281 41.703125 -53.519531 41.703125 -45.011719 C 41.703125 -36.429688 39.03125 -29.679688 33.96875 -29.679688 Z M 33.96875 -29.679688 "/></g></g><g style="fill:rgb(0%,0%,0%);fill-opacity:1;"><g transform="translate(200.718609, 214.12476)"><path style="stroke:none;" d="M 12.167969 -52.816406 L 35.304688 0.5625 L 61.1875 -59.214844 L 61.1875 -7.734375 C 61.1875 -3.304688 58.160156 -0.632812 53.167969 -0.632812 L 53.167969 0 L 83.550781 0 L 83.550781 -0.632812 C 78.910156 -0.632812 75.671875 -3.09375 75.53125 -7.734375 L 75.53125 -52.535156 C 75.53125 -60.34375 83.480469 -59.917969 83.480469 -59.917969 L 83.480469 -60.625 L 61.117188 -60.625 L 42.757812 -18.285156 L 24.402344 -60.625 L 3.515625 -60.625 L 3.515625 -59.988281 C 3.515625 -59.917969 11.535156 -60.34375 11.535156 -52.816406 L 11.535156 -7.734375 C 11.535156 -3.304688 8.507812 -0.632812 3.515625 -0.632812 L 3.515625 0 L 20.183594 0 L 20.183594 -0.632812 C 15.542969 -0.632812 12.308594 -3.09375 12.167969 -7.734375 Z M 12.167969 -52.816406 "/></g></g></g></svg>